<?xml version="1.0" encoding="UTF-8"?>
<svg width="1200pt" height="1200pt" version="1.1" viewBox="0 0 1200 1200" xmlns="http://www.w3.org/2000/svg">
 <path d="m965.68 204.05c-36.422-36.609-92.719-44.438-137.72-19.219-45 25.266-67.641 77.391-55.406 127.5-80.578 62.812-174.98 105.47-275.34 124.5-30.469 6.375-53.953 30.703-59.344 61.359l-73.594 412.18c-37.172 37.828-117.75 70.125-157.03 61.828h0.046875c-49.266-12.75-86.203-53.484-94.078-103.73-5.5312-44.672 23.156-80.016 56.438-120.94 35.156-43.266 75-92.297 67.5-157.6-6.0469-52.969-41.484-101.44-105.23-144.1-6.1875-4.125-13.781-5.6719-21.141-4.2188-7.3125 1.4531-13.734 5.7656-17.906 11.953-8.625 12.938-5.1562 30.422 7.7812 39.047 49.406 33 76.5 67.922 80.625 103.73 4.7812 41.766-23.062 76.031-55.266 115.69-36.141 44.484-77.109 94.875-68.578 163.36h-0.046875c5.3438 36.188 21.375 69.938 45.984 96.984 24.656 27.047 56.766 46.125 92.297 54.844 8.2969 1.6875 16.734 2.4844 25.172 2.4375 68.719-4.5938 133.64-32.906 183.79-80.062l410.29-73.266c31.125-5.6719 55.594-29.812 61.641-60.844 18.234-100.22 61.266-194.29 125.06-273.66 8.8125 2.1562 17.859 3.2344 26.906 3.2812 46.594 0 88.641-28.078 106.45-71.156 17.859-43.031 7.9688-92.625-24.984-125.58zm-144.37 600.94c-1.5938 8.1562-8.0625 14.484-16.266 15.984l-331.36 59.156 147.1-147.1c26.906 12.047 58.266 8.2031 81.422-9.9844 23.203-18.234 34.359-47.766 29.016-76.781-5.3906-28.969-26.344-52.594-54.516-61.312-28.125-8.7188-58.781-1.125-79.594 19.734h-0.046875c-23.156 23.344-29.531 58.547-16.031 88.547l-147.1 147.1 59.297-332.29v0.046875c1.4062-8.1094 7.5938-14.531 15.656-16.172 105.47-20.109 204.84-64.266 290.44-129.05 1.2188 1.3125 2.1094 2.8594 3.375 4.125l144.32 144.32c1.3125 1.3125 2.7656 2.4844 4.125 3.75l0.046874 0.046875c-66.094 84.703-110.62 184.18-129.89 289.87zm-184.4-127.78c-6.6562-6.6094-8.625-16.594-5.0625-25.219 3.6094-8.625 12.047-14.297 21.375-14.297 9.375 0 17.812 5.6719 21.375 14.297 3.6094 8.625 1.5938 18.609-5.0156 25.219-9.0469 9-23.625 9-32.672 0zm433.36-205.64c-23.344 22.266-60.094 22.266-83.438 0l-144.32-144.32c-22.969-23.062-22.922-60.328 0.09375-83.344 22.969-23.016 60.234-23.062 83.297-0.09375l144.32 144.37h0.046874c11.062 11.062 17.25 26.062 17.25 41.672 0 15.656-6.1875 30.656-17.25 41.719z"/>
</svg>
