<svg xmlns="http://www.w3.org/2000/svg" viewBox="0 0 500 500" width="500" height="500">
	<style>
		tspan { white-space:pre }
		.shp0 { fill: #000000 } 
	</style>
	<path id="Layer" class="shp0" d="m82.98 83.71c-4.67 4.68-6.98 10.8-6.98 16.92v103.69l52.7-54.25 37.35 37.33c2.18 2.17 5.18 3.52 8.49 3.52 3.31 0 6.31-1.35 8.48-3.52l5.93-5.94c2.19-2.17 3.52-5.17 3.52-8.49 0-3.31-1.35-6.31-3.52-8.48l-37.32-37.33 54.26-51.16-106.03 0.64c-6.12 0.03-12.22 2.39-16.88 7.07zm105.97 265.33c2.17-2.17 3.52-5.17 3.52-8.49 0-3.31-1.34-6.31-3.51-8.48l-5.94-5.94c-2.17-2.17-5.17-3.52-8.48-3.52-3.32 0-6.32 1.34-8.49 3.52l-37.35 37.32-52.71-54.24v102.78c0 6.15 2.34 12.28 7.04 16.97 4.69 4.69 10.82 7.03 16.96 7.03h105.89l-54.27-49.61zm194.1 14.44l-37.35-37.34c-2.17-2.18-5.17-3.52-8.48-3.52-3.31 0-6.31 1.34-8.49 3.52l-5.94 5.94c-2.17 2.17-3.51 5.17-3.51 8.48 0 3.31 1.33 6.31 3.51 8.49l37.32 37.34-54.25 49.61h105.88c6.15 0 12.28-2.34 16.97-7.04 4.69-4.69 7.03-10.82 7.03-16.97v-102.78zm-60.26-198.97c-2.17 2.18-3.51 5.18-3.51 8.49 0 3.31 1.34 6.31 3.51 8.48l5.94 5.95c2.18 2.17 5.18 3.5 8.49 3.5 3.31 0 6.31-1.34 8.48-3.5l37.35-37.34 51.92 54.26 0.64-103.52c0.03-6.17-2.29-12.24-6.99-16.97-4.69-4.72-10.84-7.08-17.01-7.08h-105.74l54.26 50.39z" />
</svg>