<svg xmlns="http://www.w3.org/2000/svg" viewBox="0 0 24 24" width="24" height="24">
	<style>
		tspan { white-space:pre }
		.shp0 { fill: none } 
		.shp1 { fill: none;stroke: #000000;stroke-linecap:round;stroke-linejoin:round;stroke-width: 1.3 } 
	</style>
	<path id="Layer" class="shp0" d="m0 0h24v24h-24z" />
	<path id="Layer" class="shp1" d="m3 10c0 1.86 0.74 3.64 2.05 4.95 1.31 1.31 3.09 2.05 4.95 2.05 1.86 0 3.64-0.74 4.95-2.05 1.31-1.31 2.05-3.09 2.05-4.95 0-1.86-0.74-3.64-2.05-4.95-1.31-1.31-3.09-2.05-4.95-2.05-1.86 0-3.64 0.74-4.95 2.05-1.31 1.31-2.05 3.09-2.05 4.95" />
	<path id="Layer" class="shp1" d="m6.04 6.28l8.25 7.75" />
	<path id="Layer" class="shp1" d="m13.94 6.19l-7.83 7.91" />
	<path id="Layer" class="shp1" d="m21 21l-6-6" />
</svg>