<svg xmlns="http://www.w3.org/2000/svg" viewBox="0 0 1000 1000" width="1000" height="1000">
	<style>
		tspan { white-space:pre }
		.shp0 { fill: #000000 } 
	</style>
	<path id="Layer" class="shp0" d="m101.12 382.46c1.01 0.12 2.02 0.2 2.98 0.2 11.2 0 20.88-8.27 22.43-19.65 0.32-2.63 0.74-5.26 1.24-7.86 2.23-12.29-5.93-24.07-18.24-26.3-12.19-2.21-24.04 5.92-26.29 18.22-0.59 3.29-1.13 6.66-1.55 10-1.67 12.33 7.03 23.72 19.43 25.39z" />
	<path id="Layer" class="shp0" d="m102.55 482.1c12.47 0 22.62-10.12 22.62-22.62v-9.04c0-12.5-10.15-22.63-22.62-22.63-12.49 0-22.62 10.13-22.62 22.63v9.04c0 12.5 10.13 22.62 22.62 22.62z" />
	<path id="Layer" class="shp0" d="m225.38 188.68c-3.24 0.96-6.49 2.02-9.71 3.16-11.76 4.14-17.93 17.06-13.77 28.83 3.25 9.3 12 15.1 21.3 15.1 2.5 0 5.06-0.39 7.52-1.28 2.51-0.88 4.99-1.7 7.52-2.44 11.96-3.53 18.82-16.13 15.26-28.11-3.55-11.99-16.12-18.8-28.12-15.26z" />
	<path id="Layer" class="shp0" d="m399.95 271.87c4.4 4.39 10.22 6.61 15.98 6.61 5.79 0 11.61-2.22 16.01-6.65 8.81-8.83 8.81-23.16-0.04-31.99-2.42-2.4-4.85-4.72-7.36-6.98-9.24-8.39-23.58-7.67-31.92 1.6-8.39 9.25-7.67 23.55 1.6 31.94 1.94 1.76 3.85 3.61 5.73 5.47z" />
	<path id="Layer" class="shp0" d="m439.21 336.81c0.77 2.53 1.5 5.05 2.14 7.61 2.63 10.25 11.83 17.05 21.91 17.05 1.84 0 3.73-0.23 5.6-0.72 12.1-3.07 19.4-15.39 16.33-27.48-0.84-3.29-1.75-6.56-2.76-9.8-3.7-11.96-16.4-18.64-28.31-14.93-11.91 3.68-18.59 16.35-14.91 28.27z" />
	<path id="Layer" class="shp0" d="m317.19 228.19c2.61 0.49 5.18 1.03 7.75 1.66 1.78 0.42 3.54 0.61 5.27 0.61 10.23 0 19.5-6.96 22.01-17.34 2.88-12.15-4.6-24.35-16.74-27.25-3.3-0.8-6.63-1.52-9.96-2.14-12.32-2.29-24.1 5.77-26.38 18.06-2.3 12.29 5.79 24.1 18.05 26.4z" />
	<path id="Layer" class="shp0" d="m125.19 558.64l-0.02-8.7c0-12.49-10.16-22.62-22.62-22.62-12.5 0-22.63 10.13-22.63 22.62l0.05 9.41c0.17 12.36 10.25 22.24 22.6 22.24h0.35c12.52-0.2 22.45-10.48 22.27-22.95z" />
	<path id="Layer" class="shp0" d="m145.88 634.07c-6.21-10.84-20.04-14.62-30.86-8.39-10.83 6.21-14.58 20.03-8.39 30.86 1.67 2.92 3.42 5.82 5.23 8.67 4.33 6.76 11.63 10.44 19.11 10.44 4.15 0 8.36-1.14 12.14-3.53 10.52-6.73 13.65-20.69 6.91-31.24-1.44-2.24-2.82-4.51-4.14-6.81z" />
	<path id="Layer" class="shp0" d="m214.18 698.07c-2.36-1.15-4.71-2.34-7.01-3.63-10.97-6.03-24.7-2.02-30.73 8.92-6 10.93-2.01 24.68 8.93 30.72 2.98 1.64 6 3.2 9.07 4.68 3.17 1.56 6.54 2.27 9.84 2.27 8.39 0 16.48-4.69 20.37-12.73 5.44-11.22 0.78-24.77-10.47-30.23z" />
	<path id="Layer" class="shp0" d="m132.01 247.82c-2.27 2.52-4.48 5.1-6.61 7.73-7.87 9.7-6.4 23.93 3.3 31.8 4.2 3.39 9.24 5.07 14.26 5.07 6.56 0 13.07-2.87 17.55-8.36 1.67-2.05 3.37-4.04 5.14-6.01 8.36-9.3 7.59-23.61-1.72-31.93-9.27-8.38-23.58-7.59-31.92 1.7z" />
	<path id="Layer" class="shp0" d="m902.6 279.46l-94.62-94.62c-11.29-11.29-26.32-17.52-42.28-17.52-15.98 0-31.01 6.24-42.3 17.52l-126.87 126.88c-4.33-4.32-10.31-7-16.92-7-6.59 0-12.59 2.68-16.9 7l-163.57 163.54c-4.3 4.32-6.98 10.3-6.98 16.91 0 6.61 2.68 12.6 6.98 16.92l-126.85 126.88c-11.29 11.29-17.53 26.31-17.5 42.3 0 15.95 6.19 30.96 17.5 42.26l94.62 94.63c11.3 11.29 26.32 17.52 42.31 17.52 15.96 0 30.98-6.23 42.27-17.52l109.92-109.96c4.36-4.32 7.03-10.3 7.03-16.92 0-6.6-2.67-12.59-7.03-16.9l-126.84 126.85c-6.77 6.78-15.79 10.51-25.35 10.51-9.62 0-18.62-3.73-25.38-10.51l-94.65-94.61c-6.77-6.78-10.5-15.79-10.5-25.38 0-9.59 3.73-18.59 10.5-25.38l126.86-126.85 128.46 128.45 16.9 16.92 98.7-98.69 98.72-98.69-16.92-16.91-128.46-128.46 126.86-126.85c6.77-6.78 15.77-10.51 25.38-10.51 9.56 0 18.59 3.73 25.35 10.51l94.62 94.63c6.8 6.76 10.53 15.77 10.53 25.36 0 9.6-3.75 18.61-10.53 25.38l-126.84 126.85c4.31 4.33 10.29 7.02 16.9 7.02 6.61 0 12.59-2.69 16.92-7.02l109.95-109.95c11.29-11.31 17.51-26.31 17.51-42.29 0.04-15.98-6.2-30.99-17.5-42.3z" />
	<path id="Layer" class="shp0" d="m371.16 678.57c0 12.66-10.26 22.92-22.92 22.92-12.66 0-22.92-10.26-22.92-22.92 0-12.66 10.26-22.92 22.92-22.92 12.66 0 22.92 10.26 22.92 22.92z" />
	<path id="Layer" class="shp0" d="m438.81 610.89c0 12.66-10.26 22.92-22.92 22.92-12.66 0-22.92-10.26-22.92-22.92 0-12.66 10.26-22.92 22.92-22.92 12.66 0 22.92 10.26 22.92 22.92z" />
	<path id="Layer" class="shp0" d="m433.18 740.6c0 12.66-10.26 22.92-22.92 22.92-12.66 0-22.92-10.26-22.92-22.92 0-12.66 10.26-22.92 22.92-22.92 12.66 0 22.92 10.26 22.92 22.92z" />
	<path id="Layer" class="shp0" d="m500.85 672.93c0 12.66-10.27 22.93-22.93 22.93-12.67 0-22.93-10.27-22.93-22.93 0-12.67 10.26-22.93 22.93-22.93 12.66 0 22.93 10.26 22.93 22.93z" />
	<path id="Layer" class="shp0" d="m720.74 328.99c0 12.66-10.26 22.92-22.92 22.92-12.66 0-22.92-10.26-22.92-22.92 0-12.66 10.26-22.92 22.92-22.92 12.66 0 22.92 10.26 22.92 22.92z" />
	<path id="Layer" class="shp0" d="m788.41 261.33c0 12.66-10.26 22.92-22.92 22.92-12.66 0-22.92-10.26-22.92-22.92 0-12.66 10.26-22.92 22.92-22.92 12.66 0 22.92 10.26 22.92 22.92z" />
	<path id="Layer" class="shp0" d="m782.76 391c0 12.66-10.26 22.92-22.92 22.92-12.66 0-22.92-10.26-22.92-22.92 0-12.66 10.26-22.92 22.92-22.92 12.66 0 22.92 10.26 22.92 22.92z" />
	<path id="Layer" class="shp0" d="m850.43 323.34c0 12.66-10.26 22.92-22.92 22.92-12.66 0-22.92-10.26-22.92-22.92 0-12.66 10.26-22.92 22.92-22.92 12.66 0 22.92 10.26 22.92 22.92z" />
</svg>